<?xml version="1.0" encoding="utf-8"?>
<svg viewBox="0 0 94 38" xmlns="http://www.w3.org/2000/svg">
  <g transform="matrix(0.41945502161979675, 0, 0, 0.3902590274810791, -0.19838900864124298, 6.230020046234132)" style="">
    <g>
      <path fill="#FFFFFF" fill-opacity="0%" opacity="1.000000" stroke="none" d="M 1 61.469 C 1 41.371 1 21.273 1 1 C 24.584 1 48.168 1 72.182 1.383 C 72.593 21.66 72.574 41.554 72.129 61.455 C 48.135 61.464 24.567 61.466 1 61.469 M 53.88 27.406 C 53.587 25.292 53.141 23.184 53.035 21.063 C 52.846 17.267 53.085 13.443 52.647 9.676 C 52.522 8.611 50.666 7.705 49.604 6.726 C 48.969 7.636 48.228 8.502 47.716 9.464 C 45.689 13.274 46.753 18.462 41.157 20.737 C 40.392 21.048 40.085 22.604 39.898 23.631 C 39.001 28.566 38.265 33.523 37.383 38.46 C 36.601 42.833 35.7 47.19 34.775 51.95 C 25.899 51.95 17.436 51.95 8.988 51.95 C 8.988 53.971 8.988 55.512 8.988 57.108 C 28.116 57.108 46.84 57.108 66.311 57.108 C 64.958 52.671 67.046 47.809 61.645 44.731 C 60.856 44.281 60.253 42.797 60.419 41.921 C 61.521 36.118 58.748 31.77 53.88 27.406 M 28.793 23.058 C 30.708 24.386 32.622 25.714 34.453 26.984 C 35.632 20.933 29.404 15.697 17.212 12.811 C 16.262 14.31 15.299 15.831 14.228 17.522 C 18.03 20.654 17.011 24.066 14.904 27.477 C 13.158 30.306 11.137 33.015 9.62 35.934 C 9.06 37.01 9.593 38.536 9.627 39.857 C 11.306 39.372 13.566 39.325 14.536 38.306 C 16.255 36.498 16.955 33.952 18.508 31.982 C 21.193 28.575 22.67 24.069 28.793 23.058 Z" style=""/>
      <path fill="#FDC70F" opacity="1.000000" stroke="none" d="M 54.457 29.563 C 59.553 34.554 62.573 39.875 61.373 46.976 C 61.192 48.049 61.849 49.864 62.708 50.415 C 68.591 54.181 66.317 60.132 67.791 65.561 C 46.582 65.561 26.189 65.561 5.355 65.561 C 5.355 63.609 5.355 61.723 5.355 59.249 C 14.556 59.249 23.774 59.249 33.442 59.249 C 34.449 53.424 35.43 48.093 36.282 42.741 C 37.243 36.699 38.045 30.632 39.021 24.593 C 39.225 23.336 39.559 21.433 40.393 21.052 C 46.488 18.267 45.329 11.918 47.537 7.256 C 48.095 6.078 48.901 5.019 49.593 3.905 C 50.75 5.103 52.772 6.212 52.907 7.516 C 53.385 12.125 53.124 16.806 53.331 21.451 C 53.446 24.046 53.932 26.626 54.457 29.563 Z"/>
      <g>
        <path fill="#FCCA1F" opacity="1.000000" stroke="none" d=" M30.895290,27.928490 C24.602467,29.230682 22.993759,34.745407 20.069101,38.914772 C18.377508,41.326283 17.615660,44.441784 15.742765,46.654106 C14.686862,47.901379 12.225207,47.958580 10.396801,48.551872 C10.359167,46.935631 9.779010,45.068371 10.388311,43.751446 C12.041140,40.179081 14.241840,36.863979 16.144442,33.402428 C18.438782,29.228149 19.548702,25.051468 15.408280,21.219564 C16.574615,19.150064 17.623577,17.288828 18.657520,15.454242 C31.937807,18.986235 38.720703,25.394045 37.436367,32.798038 C35.442142,31.243771 33.357243,29.618837 30.895290,27.928490 z"/>
      </g>
    </g>
  </g>
  <g id="fontsvg1706826148184" stroke-linecap="round" fill-rule="evenodd" fill="#f9f9f9" transform="matrix(0.6050960421562195, 0, 0, 0.5993950366973877, 35.85786056518555, 9.592874526977539)" style="">
    <path d="M 25.8 10.7 L 19.4 10.7 Q 19.3 8.35 17.7 7.025 A 5.487 5.487 0 0 0 15.569 5.959 Q 14.592 5.7 13.4 5.7 Q 11.078 5.7 9.484 6.522 A 5.751 5.751 0 0 0 8.675 7.025 A 4.208 4.208 0 0 0 6.929 10.082 A 5.516 5.516 0 0 0 6.9 10.65 A 4.663 4.663 0 0 0 7.396 12.849 Q 8.332 14.632 11.033 15.324 A 10.876 10.876 0 0 0 11.35 15.4 L 17.1 16.65 A 17.3 17.3 0 0 1 21.004 17.944 Q 26.073 20.398 26.38 25.924 A 13.076 13.076 0 0 1 26.4 26.65 A 11.526 11.526 0 0 1 25.798 30.456 A 9.771 9.771 0 0 1 22.75 34.8 Q 19.1 37.85 13.05 37.85 A 19.236 19.236 0 0 1 9.142 37.476 Q 5.924 36.808 3.65 34.95 Q 0.1 32.05 0 27.15 L 6.4 27.15 Q 6.45 29.45 8.2 30.775 A 5.973 5.973 0 0 0 10.119 31.721 Q 10.954 31.97 11.955 32.056 A 12.864 12.864 0 0 0 13.05 32.1 A 12.767 12.767 0 0 0 15.072 31.95 Q 16.887 31.659 18.125 30.8 A 4.402 4.402 0 0 0 19.407 29.472 Q 20 28.494 20 27.2 A 4.619 4.619 0 0 0 19.575 25.166 Q 18.701 23.36 16.034 22.715 A 10.134 10.134 0 0 0 15.75 22.65 L 9.95 21.35 Q 1.563 19.531 0.62 12.671 A 13.358 13.358 0 0 1 0.5 10.85 A 10.31 10.31 0 0 1 1.323 6.679 A 9.906 9.906 0 0 1 4.125 3.025 A 12.695 12.695 0 0 1 9.72 0.374 A 18.167 18.167 0 0 1 13.5 0 Q 18.383 0 21.525 2.226 A 10.472 10.472 0 0 1 22.35 2.875 A 9.861 9.861 0 0 1 25.653 9.042 A 13.816 13.816 0 0 1 25.8 10.7 Z M 79.75 22.3 L 87.15 21.75 L 87.15 21.2 A 6.201 6.201 0 0 0 86.879 19.284 Q 85.975 16.502 82.054 16.5 A 7.742 7.742 0 0 0 82.05 16.5 A 10.9 10.9 0 0 0 80.485 16.605 Q 79.691 16.721 79.045 16.963 A 4.656 4.656 0 0 0 77.9 17.575 Q 76.45 18.65 76.45 20.6 L 71.25 20.6 A 8.544 8.544 0 0 1 71.829 17.402 A 7.834 7.834 0 0 1 74.275 14.175 A 10.474 10.474 0 0 1 78.189 12.248 Q 79.711 11.844 81.507 11.768 A 19.99 19.99 0 0 1 82.35 11.75 Q 86.516 11.75 89.185 13.588 A 8.815 8.815 0 0 1 90.25 14.45 Q 93.1 17.15 93.1 22.2 L 93.1 37.2 L 87.75 37.2 L 87.3 33.55 A 5.573 5.573 0 0 1 85.777 35.606 Q 85.134 36.164 84.28 36.621 A 10.07 10.07 0 0 1 84.225 36.65 A 10.413 10.413 0 0 1 80.466 37.775 A 12.973 12.973 0 0 1 79.05 37.85 A 11.707 11.707 0 0 1 76.483 37.585 Q 74.684 37.181 73.362 36.162 A 7.189 7.189 0 0 1 72.875 35.75 Q 70.6 33.65 70.6 30.15 Q 70.6 26.75 72.975 24.7 Q 74.913 23.028 78.2 22.487 A 18.672 18.672 0 0 1 79.75 22.3 Z M 54.25 24.4 L 54.25 26.25 L 35.65 26.3 A 10.492 10.492 0 0 0 36.271 29.001 Q 37.774 32.85 42.45 32.85 A 11.015 11.015 0 0 0 44.642 32.65 Q 45.86 32.402 46.738 31.846 A 4.573 4.573 0 0 0 48.7 29.2 L 54.35 29.2 Q 53.55 33.25 50.375 35.55 A 11.736 11.736 0 0 1 45.916 37.492 A 16.835 16.835 0 0 1 42.35 37.85 Q 36.85 37.85 33.35 34.225 A 12.318 12.318 0 0 1 29.995 27.101 A 16.96 16.96 0 0 1 29.85 24.85 A 16.014 16.014 0 0 1 30.404 20.531 A 12.16 12.16 0 0 1 33.275 15.4 A 11.401 11.401 0 0 1 41.146 11.783 A 15.466 15.466 0 0 1 42.15 11.75 A 14.534 14.534 0 0 1 45.993 12.232 A 10.639 10.639 0 0 1 50.975 15.175 A 11.483 11.483 0 0 1 53.88 20.772 A 16.881 16.881 0 0 1 54.25 24.4 Z M 65.3 0 L 65.3 37.2 L 59.25 37.2 L 59.25 0 L 65.3 0 Z M 35.8 22.4 L 48.2 22.4 A 6.501 6.501 0 0 0 47.952 20.561 A 5.032 5.032 0 0 0 46.575 18.3 A 5.452 5.452 0 0 0 43.921 16.925 A 8.02 8.02 0 0 0 42.2 16.75 Q 37.689 16.75 36.272 20.552 A 9.632 9.632 0 0 0 35.8 22.4 Z M 87.2 27.2 L 87.2 25.9 L 82.05 26.3 Q 78.448 26.643 77.317 28.21 A 2.811 2.811 0 0 0 76.8 29.9 A 3.715 3.715 0 0 0 77.078 31.395 Q 77.772 32.987 80.198 33.213 A 9.185 9.185 0 0 0 81.05 33.25 A 8.189 8.189 0 0 0 82.934 33.046 A 5.486 5.486 0 0 0 85.55 31.65 A 5.253 5.253 0 0 0 87.005 29.012 A 7.935 7.935 0 0 0 87.2 27.2 Z" vector-effect="non-scaling-stroke"/>
  </g>
</svg>