<svg version="1.1" id="Layer_1" xmlns="http://www.w3.org/2000/svg" xmlns:xlink="http://www.w3.org/1999/xlink" x="0px" y="0px"
	 width="100%" viewBox="0 0 79 75" enable-background="new 0 0 79 75" xml:space="preserve">
<path fill="#FFFFFF" fill-opacity="0%" opacity="1.000000" stroke="none" 
	d="
M1.000000,75.000000 
	C1.000000,50.404530 1.000000,25.809061 1.000000,1.000000 
	C26.687166,1.000000 52.374924,1.000000 78.530724,1.468657 
	C78.978386,26.283239 78.958015,50.629166 78.472961,74.983452 
	C52.338852,74.994545 26.669426,74.997269 1.000000,75.000000 
M58.596462,33.314457 
	C58.277580,30.727724 57.791908,28.148413 57.676384,25.552629 
	C57.469658,20.907532 57.730728,16.227129 57.252842,11.617825 
	C57.117638,10.313803 55.095612,9.205406 53.938938,8.007289 
	C53.246941,9.120884 52.440559,10.180316 51.883091,11.357610 
	C49.675228,16.020288 50.834141,22.368938 44.738861,25.153913 
	C43.905201,25.534819 43.570461,27.438118 43.367207,28.695171 
	C42.390739,34.734207 41.589127,40.801395 40.627499,46.842999 
	C39.775681,52.194672 38.795059,57.525845 37.787346,63.351387 
	C28.119825,63.351387 18.901394,63.351387 9.700530,63.351387 
	C9.700530,65.825058 9.700530,67.710594 9.700530,69.662949 
	C30.534967,69.662949 50.928009,69.662949 72.136269,69.662949 
	C70.662613,64.233627 72.936844,58.283062 67.053604,54.516434 
	C66.194275,53.966267 65.537674,52.150425 65.718910,51.077618 
	C66.918533,43.976486 63.898853,38.655701 58.596462,33.314457 
M31.272348,27.993904 
	C33.357243,29.618837 35.442142,31.243771 37.436367,32.798038 
	C38.720703,25.394045 31.937807,18.986235 18.657520,15.454242 
	C17.623577,17.288828 16.574615,19.150064 15.408280,21.219564 
	C19.548702,25.051468 18.438782,29.228149 16.144442,33.402428 
	C14.241840,36.863979 12.041140,40.179081 10.388311,43.751446 
	C9.779010,45.068371 10.359167,46.935631 10.396801,48.551872 
	C12.225207,47.958580 14.686862,47.901379 15.742765,46.654106 
	C17.615660,44.441784 18.377508,41.326283 20.069101,38.914772 
	C22.993759,34.745407 24.602467,29.230682 31.272348,27.993904 
z"/>
<path fill="#FDC70F" opacity="1.000000" stroke="none" 
	d="
M58.803055,33.664619 
	C63.898853,38.655701 66.918533,43.976486 65.718910,51.077618 
	C65.537674,52.150425 66.194275,53.966267 67.053604,54.516434 
	C72.936844,58.283062 70.662613,64.233627 72.136269,69.662949 
	C50.928009,69.662949 30.534967,69.662949 9.700530,69.662949 
	C9.700530,67.710594 9.700530,65.825058 9.700530,63.351387 
	C18.901394,63.351387 28.119825,63.351387 37.787346,63.351387 
	C38.795059,57.525845 39.775681,52.194672 40.627499,46.842999 
	C41.589127,40.801395 42.390739,34.734207 43.367207,28.695171 
	C43.570461,27.438118 43.905201,25.534819 44.738861,25.153913 
	C50.834141,22.368938 49.675228,16.020288 51.883091,11.357610 
	C52.440559,10.180316 53.246941,9.120884 53.938938,8.007290 
	C55.095612,9.205406 57.117638,10.313803 57.252842,11.617825 
	C57.730728,16.227129 57.469658,20.907532 57.676384,25.552629 
	C57.791908,28.148413 58.277580,30.727724 58.803055,33.664619 
z"/>
<path fill="#FCCA1F" opacity="1.000000" stroke="none" 
	d="
M30.895290,27.928490 
	C24.602467,29.230682 22.993759,34.745407 20.069101,38.914772 
	C18.377508,41.326283 17.615660,44.441784 15.742765,46.654106 
	C14.686862,47.901379 12.225207,47.958580 10.396801,48.551872 
	C10.359167,46.935631 9.779010,45.068371 10.388311,43.751446 
	C12.041140,40.179081 14.241840,36.863979 16.144442,33.402428 
	C18.438782,29.228149 19.548702,25.051468 15.408280,21.219564 
	C16.574615,19.150064 17.623577,17.288828 18.657520,15.454242 
	C31.937807,18.986235 38.720703,25.394045 37.436367,32.798038 
	C35.442142,31.243771 33.357243,29.618837 30.895290,27.928490 
z"/>
</svg>